# 3ds Max Wavefront OBJ Exporter v0.99 - (c)2007 guruware
# File Created: 12.07.2025 13:41:03

#
# object Cylinder003
#

v  1.4122 0.0000 -0.4589
v  1.4122 0.2053 -0.4589
v  1.4849 0.2053 -0.0000
v  1.4849 0.0000 -0.0000
v  1.2013 0.0000 -0.8728
v  1.2013 0.2053 -0.8728
v  0.8728 0.0000 -1.2013
v  0.8728 0.2053 -1.2013
v  0.4589 0.0000 -1.4122
v  0.4589 0.2053 -1.4122
v  -0.0000 0.0000 -1.4849
v  -0.0000 0.2053 -1.4849
v  -0.4589 0.0000 -1.4122
v  -0.4589 0.2053 -1.4122
v  -0.8728 0.0000 -1.2013
v  -0.8728 0.2053 -1.2013
v  -1.2013 0.0000 -0.8728
v  -1.2013 0.2053 -0.8728
v  -1.4122 0.0000 -0.4589
v  -1.4122 0.2053 -0.4589
v  -1.4849 0.0000 0.0000
v  -1.4849 0.2053 0.0000
v  -1.4122 0.0000 0.4589
v  -1.4122 0.2053 0.4589
v  -1.2013 0.0000 0.8728
v  -1.2013 0.2053 0.8728
v  -0.8728 0.0000 1.2013
v  -0.8728 0.2053 1.2013
v  -0.4589 0.0000 1.4122
v  -0.4589 0.2053 1.4122
v  0.0000 0.0000 1.4849
v  0.0000 0.2053 1.4849
v  0.4589 0.0000 1.4122
v  0.4589 0.2053 1.4122
v  0.8728 0.0000 1.2013
v  0.8728 0.2053 1.2013
v  1.2013 0.0000 0.8728
v  1.2013 0.2053 0.8728
v  1.4122 0.0000 0.4589
v  1.4122 0.2053 0.4589
v  1.4097 0.3013 0.0000
v  1.3407 0.3013 -0.4356
v  0.0000 0.3013 -0.0000
v  1.1405 0.3013 -0.8286
v  0.8286 0.3013 -1.1405
v  0.4356 0.3013 -1.3407
v  -0.0000 0.3013 -1.4097
v  -0.4356 0.3013 -1.3407
v  -0.8286 0.3013 -1.1405
v  -1.1405 0.3013 -0.8286
v  -1.3407 0.3013 -0.4356
v  -1.4097 0.3013 0.0000
v  -1.3407 0.3013 0.4356
v  -1.1405 0.3013 0.8286
v  -0.8286 0.3013 1.1405
v  -0.4356 0.3013 1.3407
v  0.0000 0.3013 1.4097
v  0.4356 0.3013 1.3407
v  0.8286 0.3013 1.1405
v  1.1405 0.3013 0.8286
v  1.3407 0.3013 0.4356
v  0.0000 0.0000 -0.0000
v  1.4098 0.2337 -0.4581
v  1.4823 0.2337 0.0000
v  1.1992 0.2337 -0.8713
v  0.8713 0.2337 -1.1992
v  0.4581 0.2337 -1.4098
v  -0.0000 0.2337 -1.4823
v  -0.4581 0.2337 -1.4098
v  -0.8713 0.2337 -1.1992
v  -1.1992 0.2337 -0.8713
v  -1.4098 0.2337 -0.4581
v  -1.4823 0.2337 0.0000
v  -1.4098 0.2337 0.4581
v  -1.1992 0.2337 0.8713
v  -0.8713 0.2337 1.1992
v  -0.4581 0.2337 1.4098
v  0.0000 0.2337 1.4823
v  0.4581 0.2337 1.4098
v  0.8713 0.2337 1.1992
v  1.1992 0.2337 0.8713
v  1.4098 0.2337 0.4581
v  1.4536 0.2851 0.0000
v  1.3825 0.2851 -0.4492
v  1.1760 0.2851 -0.8544
v  0.8544 0.2851 -1.1760
v  0.4492 0.2851 -1.3825
v  -0.0000 0.2851 -1.4536
v  -0.4492 0.2851 -1.3825
v  -0.8544 0.2851 -1.1760
v  -1.1760 0.2851 -0.8544
v  -1.3825 0.2851 -0.4492
v  -1.4536 0.2851 0.0000
v  -1.3825 0.2851 0.4492
v  -1.1760 0.2851 0.8544
v  -0.8544 0.2851 1.1760
v  -0.4492 0.2851 1.3825
v  0.0000 0.2851 1.4536
v  0.4492 0.2851 1.3825
v  0.8544 0.2851 1.1760
v  1.1760 0.2851 0.8544
v  1.3825 0.2851 0.4492
v  1.4059 0.2600 -0.4568
v  1.4783 0.2600 0.0000
v  1.1960 0.2600 -0.8689
v  0.8689 0.2600 -1.1960
v  0.4568 0.2600 -1.4059
v  -0.0000 0.2600 -1.4783
v  -0.4568 0.2600 -1.4059
v  -0.8689 0.2600 -1.1960
v  -1.1960 0.2600 -0.8689
v  -1.4059 0.2600 -0.4568
v  -1.4783 0.2600 0.0000
v  -1.4059 0.2600 0.4568
v  -1.1960 0.2600 0.8689
v  -0.8689 0.2600 1.1960
v  -0.4568 0.2600 1.4059
v  0.0000 0.2600 1.4783
v  0.4568 0.2600 1.4059
v  0.8689 0.2600 1.1960
v  1.1960 0.2600 0.8689
v  1.4059 0.2600 0.4568
# 122 vertices

vn 0.9511 0.0000 -0.3090
vn 0.9510 0.0093 -0.3090
vn 1.0000 0.0093 -0.0000
vn 1.0000 0.0000 -0.0000
vn 0.8090 0.0000 -0.5878
vn 0.8090 0.0093 -0.5878
vn 0.5878 0.0000 -0.8090
vn 0.5878 0.0093 -0.8090
vn 0.3090 0.0000 -0.9511
vn 0.3090 0.0093 -0.9510
vn -0.0000 0.0000 -1.0000
vn 0.0000 0.0093 -1.0000
vn -0.3090 0.0000 -0.9511
vn -0.3090 0.0093 -0.9510
vn -0.5878 -0.0000 -0.8090
vn -0.5878 0.0093 -0.8090
vn -0.8090 0.0000 -0.5878
vn -0.8090 0.0093 -0.5878
vn -0.9511 -0.0000 -0.3090
vn -0.9510 0.0093 -0.3090
vn -1.0000 -0.0000 0.0000
vn -1.0000 0.0093 0.0000
vn -0.9511 -0.0000 0.3090
vn -0.9510 0.0093 0.3090
vn -0.8090 -0.0000 0.5878
vn -0.8090 0.0093 0.5878
vn -0.5878 -0.0000 0.8090
vn -0.5878 0.0093 0.8090
vn -0.3090 -0.0000 0.9511
vn -0.3090 0.0093 0.9510
vn 0.0000 -0.0000 1.0000
vn 0.0000 0.0093 1.0000
vn 0.3090 0.0000 0.9511
vn 0.3090 0.0093 0.9510
vn 0.5878 0.0000 0.8090
vn 0.5878 0.0093 0.8090
vn 0.8090 0.0000 0.5878
vn 0.8090 0.0093 0.5878
vn 0.9511 0.0000 0.3090
vn 0.9510 0.0093 0.3090
vn 0.5446 0.8387 -0.0000
vn 0.5180 0.8387 -0.1683
vn 0.0000 1.0000 -0.0000
vn 0.4406 0.8387 -0.3201
vn 0.3201 0.8387 -0.4406
vn 0.1683 0.8387 -0.5180
vn -0.0000 0.8387 -0.5446
vn -0.1683 0.8387 -0.5180
vn -0.3201 0.8387 -0.4406
vn -0.4406 0.8387 -0.3201
vn -0.5180 0.8387 -0.1683
vn -0.5446 0.8387 0.0000
vn -0.5180 0.8387 0.1683
vn -0.4406 0.8387 0.3201
vn -0.3201 0.8387 0.4406
vn -0.1683 0.8387 0.5180
vn 0.0000 0.8387 0.5446
vn 0.1683 0.8387 0.5180
vn 0.3201 0.8387 0.4406
vn 0.4406 0.8387 0.3201
vn 0.5180 0.8387 0.1683
vn 0.0000 -1.0000 -0.0000
vn 0.9508 0.0248 -0.3089
vn 0.9997 0.0248 -0.0000
vn 0.8088 0.0248 -0.5876
vn 0.5876 0.0248 -0.8088
vn 0.3089 0.0248 -0.9508
vn -0.0000 0.0248 -0.9997
vn -0.3089 0.0248 -0.9508
vn -0.5876 0.0248 -0.8088
vn -0.8088 0.0248 -0.5876
vn -0.9508 0.0248 -0.3089
vn -0.9997 0.0248 0.0000
vn -0.9508 0.0248 0.3089
vn -0.8088 0.0248 0.5876
vn -0.5876 0.0248 0.8088
vn -0.3089 0.0248 0.9508
vn 0.0000 0.0248 0.9997
vn 0.3089 0.0248 0.9508
vn 0.5876 0.0248 0.8088
vn 0.8088 0.0248 0.5876
vn 0.9508 0.0248 0.3089
vn 0.9411 0.3381 -0.0000
vn 0.8951 0.3381 -0.2908
vn 0.7614 0.3381 -0.5532
vn 0.5532 0.3381 -0.7614
vn 0.2908 0.3381 -0.8951
vn -0.0000 0.3381 -0.9411
vn -0.2908 0.3381 -0.8951
vn -0.5532 0.3381 -0.7614
vn -0.7614 0.3381 -0.5532
vn -0.8951 0.3381 -0.2908
vn -0.9411 0.3381 0.0000
vn -0.8951 0.3381 0.2908
vn -0.7614 0.3381 0.5532
vn -0.5532 0.3381 0.7614
vn -0.2908 0.3381 0.8951
vn 0.0000 0.3381 0.9411
vn 0.2908 0.3381 0.8951
vn 0.5532 0.3381 0.7614
vn 0.7614 0.3381 0.5532
vn 0.8951 0.3381 0.2908
vn 0.9450 0.1128 -0.3070
vn 0.9936 0.1128 -0.0000
vn 0.8039 0.1128 -0.5840
vn 0.5840 0.1128 -0.8039
vn 0.3070 0.1128 -0.9450
vn -0.0000 0.1128 -0.9936
vn -0.3070 0.1128 -0.9450
vn -0.5840 0.1128 -0.8039
vn -0.8039 0.1128 -0.5840
vn -0.9450 0.1128 -0.3070
vn -0.9936 0.1128 0.0000
vn -0.9450 0.1128 0.3070
vn -0.8039 0.1128 0.5840
vn -0.5840 0.1128 0.8039
vn -0.3070 0.1128 0.9450
vn 0.0000 0.1128 0.9936
vn 0.3070 0.1128 0.9450
vn 0.5840 0.1128 0.8039
vn 0.8039 0.1128 0.5840
vn 0.9450 0.1128 0.3070
# 122 vertex normals

vt 0.8000 0.0000 1.0000
vt 0.8000 0.9500 1.0000
vt 0.7500 0.9500 1.0000
vt 0.7500 0.0000 1.0000
vt 0.8500 0.0000 1.0000
vt 0.8500 0.9500 1.0000
vt 0.9000 0.0000 1.0000
vt 0.9000 0.9500 1.0000
vt 0.9500 0.0000 1.0000
vt 0.9500 0.9500 1.0000
vt 0.0000 0.0000 1.0000
vt 0.0000 0.9500 1.0000
vt -0.0500 0.9500 1.0000
vt -0.0500 0.0000 1.0000
vt 0.0500 0.0000 1.0000
vt 0.0500 0.9500 1.0000
vt 0.1000 0.0000 1.0000
vt 0.1000 0.9500 1.0000
vt 0.1500 0.0000 1.0000
vt 0.1500 0.9500 1.0000
vt 0.2000 0.0000 1.0000
vt 0.2000 0.9500 1.0000
vt 0.2500 0.0000 1.0000
vt 0.2500 0.9500 1.0000
vt 0.3000 0.0000 1.0000
vt 0.3000 0.9500 1.0000
vt 0.3500 0.0000 1.0000
vt 0.3500 0.9500 1.0000
vt 0.4000 0.0000 1.0000
vt 0.4000 0.9500 1.0000
vt 0.4500 0.0000 1.0000
vt 0.4500 0.9500 1.0000
vt 0.5000 0.0000 1.0000
vt 0.5000 0.9500 1.0000
vt 0.5500 0.0000 1.0000
vt 0.5500 0.9500 1.0000
vt 0.6000 0.0000 1.0000
vt 0.6000 0.9500 1.0000
vt 0.6500 0.0000 1.0000
vt 0.6500 0.9500 1.0000
vt 0.7000 0.0000 1.0000
vt 0.7000 0.9500 1.0000
vt 0.7348 1.0000 1.0000
vt 0.7823 1.0000 1.0000
vt 0.4500 1.0000 1.0000
vt 0.8298 1.0000 1.0000
vt 0.8772 1.0000 1.0000
vt 0.9247 1.0000 1.0000
vt -0.0247 1.0000 1.0000
vt 0.0228 1.0000 1.0000
vt 0.0702 1.0000 1.0000
vt 0.1177 1.0000 1.0000
vt 0.1652 1.0000 1.0000
vt 0.2127 1.0000 1.0000
vt 0.2601 1.0000 1.0000
vt 0.3076 1.0000 1.0000
vt 0.3551 1.0000 1.0000
vt 0.4025 1.0000 1.0000
vt 0.4975 1.0000 1.0000
vt 0.5449 1.0000 1.0000
vt 0.5924 1.0000 1.0000
vt 0.6399 1.0000 1.0000
vt 0.6873 1.0000 1.0000
vt 0.8000 0.9750 1.0000
vt 0.7500 0.9750 1.0000
vt 0.8500 0.9750 1.0000
vt 0.9000 0.9750 1.0000
vt 0.9500 0.9750 1.0000
vt 0.0000 0.9750 1.0000
vt -0.0500 0.9750 1.0000
vt 0.0500 0.9750 1.0000
vt 0.1000 0.9750 1.0000
vt 0.1500 0.9750 1.0000
vt 0.2000 0.9750 1.0000
vt 0.2500 0.9750 1.0000
vt 0.3000 0.9750 1.0000
vt 0.3500 0.9750 1.0000
vt 0.4000 0.9750 1.0000
vt 0.4500 0.9750 1.0000
vt 0.5000 0.9750 1.0000
vt 0.5500 0.9750 1.0000
vt 0.6000 0.9750 1.0000
vt 0.6500 0.9750 1.0000
vt 0.7000 0.9750 1.0000
vt 0.7424 1.0000 1.0000
vt 0.7911 1.0000 1.0000
vt 0.8399 1.0000 1.0000
vt 0.8886 1.0000 1.0000
vt 0.9373 1.0000 1.0000
vt -0.0373 1.0000 1.0000
vt 0.0114 1.0000 1.0000
vt 0.0601 1.0000 1.0000
vt 0.1089 1.0000 1.0000
vt 0.1576 1.0000 1.0000
vt 0.2063 1.0000 1.0000
vt 0.2551 1.0000 1.0000
vt 0.3038 1.0000 1.0000
vt 0.3525 1.0000 1.0000
vt 0.4013 1.0000 1.0000
vt 0.4987 1.0000 1.0000
vt 0.5475 1.0000 1.0000
vt 0.5962 1.0000 1.0000
vt 0.6449 1.0000 1.0000
vt 0.6937 1.0000 1.0000
vt 0.8000 1.0000 1.0000
vt 0.7500 1.0000 1.0000
vt 0.8500 1.0000 1.0000
vt 0.9000 1.0000 1.0000
vt 0.9500 1.0000 1.0000
vt 0.0000 1.0000 1.0000
vt -0.0500 1.0000 1.0000
vt 0.0500 1.0000 1.0000
vt 0.1000 1.0000 1.0000
vt 0.1500 1.0000 1.0000
vt 0.2000 1.0000 1.0000
vt 0.2500 1.0000 1.0000
vt 0.3000 1.0000 1.0000
vt 0.3500 1.0000 1.0000
vt 0.4000 1.0000 1.0000
vt 0.5000 1.0000 1.0000
vt 0.5500 1.0000 1.0000
vt 0.6000 1.0000 1.0000
vt 0.6500 1.0000 1.0000
vt 0.7000 1.0000 1.0000
# 124 texture coords

o Cylinder003
g Cylinder003
s 1
f 1/1/1 2/2/2 3/3/3 
f 3/3/3 4/4/4 1/1/1 
f 5/5/5 6/6/6 2/2/2 
f 2/2/2 1/1/1 5/5/5 
f 7/7/7 8/8/8 6/6/6 
f 6/6/6 5/5/5 7/7/7 
f 9/9/9 10/10/10 8/8/8 
f 8/8/8 7/7/7 9/9/9 
f 11/11/11 12/12/12 10/13/10 
f 10/13/10 9/14/9 11/11/11 
f 13/15/13 14/16/14 12/12/12 
f 12/12/12 11/11/11 13/15/13 
f 15/17/15 16/18/16 14/16/14 
f 14/16/14 13/15/13 15/17/15 
f 17/19/17 18/20/18 16/18/16 
f 16/18/16 15/17/15 17/19/17 
f 19/21/19 20/22/20 18/20/18 
f 18/20/18 17/19/17 19/21/19 
f 21/23/21 22/24/22 20/22/20 
f 20/22/20 19/21/19 21/23/21 
f 23/25/23 24/26/24 22/24/22 
f 22/24/22 21/23/21 23/25/23 
f 25/27/25 26/28/26 24/26/24 
f 24/26/24 23/25/23 25/27/25 
f 27/29/27 28/30/28 26/28/26 
f 26/28/26 25/27/25 27/29/27 
f 29/31/29 30/32/30 28/30/28 
f 28/30/28 27/29/27 29/31/29 
f 31/33/31 32/34/32 30/32/30 
f 30/32/30 29/31/29 31/33/31 
f 33/35/33 34/36/34 32/34/32 
f 32/34/32 31/33/31 33/35/33 
f 35/37/35 36/38/36 34/36/34 
f 34/36/34 33/35/33 35/37/35 
f 37/39/37 38/40/38 36/38/36 
f 36/38/36 35/37/35 37/39/37 
f 39/41/39 40/42/40 38/40/38 
f 38/40/38 37/39/37 39/41/39 
f 4/4/4 3/3/3 40/42/40 
f 40/42/40 39/41/39 4/4/4 
f 41/43/41 42/44/42 43/45/43 
f 42/44/42 44/46/44 43/45/43 
f 44/46/44 45/47/45 43/45/43 
f 45/47/45 46/48/46 43/45/43 
f 46/49/46 47/50/47 43/45/43 
f 47/50/47 48/51/48 43/45/43 
f 48/51/48 49/52/49 43/45/43 
f 49/52/49 50/53/50 43/45/43 
f 50/53/50 51/54/51 43/45/43 
f 51/54/51 52/55/52 43/45/43 
f 52/55/52 53/56/53 43/45/43 
f 53/56/53 54/57/54 43/45/43 
f 54/57/54 55/58/55 43/45/43 
f 55/58/55 56/45/56 43/45/43 
f 56/45/56 57/59/57 43/45/43 
f 57/59/57 58/60/58 43/45/43 
f 58/60/58 59/61/59 43/45/43 
f 59/61/59 60/62/60 43/45/43 
f 60/62/60 61/63/61 43/45/43 
f 61/63/61 41/43/41 43/45/43 
s 2
f 1/1/62 4/4/62 62/31/62 
f 5/5/62 1/1/62 62/31/62 
f 7/7/62 5/5/62 62/31/62 
f 9/9/62 7/7/62 62/31/62 
f 11/11/62 9/14/62 62/31/62 
f 13/15/62 11/11/62 62/31/62 
f 15/17/62 13/15/62 62/31/62 
f 17/19/62 15/17/62 62/31/62 
f 19/21/62 17/19/62 62/31/62 
f 21/23/62 19/21/62 62/31/62 
f 23/25/62 21/23/62 62/31/62 
f 25/27/62 23/25/62 62/31/62 
f 27/29/62 25/27/62 62/31/62 
f 29/31/62 27/29/62 62/31/62 
f 31/33/62 29/31/62 62/31/62 
f 33/35/62 31/33/62 62/31/62 
f 35/37/62 33/35/62 62/31/62 
f 37/39/62 35/37/62 62/31/62 
f 39/41/62 37/39/62 62/31/62 
f 4/4/62 39/41/62 62/31/62 
s 1
f 2/2/2 63/64/63 64/65/64 
f 64/65/64 3/3/3 2/2/2 
f 6/6/6 65/66/65 63/64/63 
f 63/64/63 2/2/2 6/6/6 
f 8/8/8 66/67/66 65/66/65 
f 65/66/65 6/6/6 8/8/8 
f 10/10/10 67/68/67 66/67/66 
f 66/67/66 8/8/8 10/10/10 
f 12/12/12 68/69/68 67/70/67 
f 67/70/67 10/13/10 12/12/12 
f 14/16/14 69/71/69 68/69/68 
f 68/69/68 12/12/12 14/16/14 
f 16/18/16 70/72/70 69/71/69 
f 69/71/69 14/16/14 16/18/16 
f 18/20/18 71/73/71 70/72/70 
f 70/72/70 16/18/16 18/20/18 
f 20/22/20 72/74/72 71/73/71 
f 71/73/71 18/20/18 20/22/20 
f 22/24/22 73/75/73 72/74/72 
f 72/74/72 20/22/20 22/24/22 
f 24/26/24 74/76/74 73/75/73 
f 73/75/73 22/24/22 24/26/24 
f 26/28/26 75/77/75 74/76/74 
f 74/76/74 24/26/24 26/28/26 
f 28/30/28 76/78/76 75/77/75 
f 75/77/75 26/28/26 28/30/28 
f 30/32/30 77/79/77 76/78/76 
f 76/78/76 28/30/28 30/32/30 
f 32/34/32 78/80/78 77/79/77 
f 77/79/77 30/32/30 32/34/32 
f 34/36/34 79/81/79 78/80/78 
f 78/80/78 32/34/32 34/36/34 
f 36/38/36 80/82/80 79/81/79 
f 79/81/79 34/36/34 36/38/36 
f 38/40/38 81/83/81 80/82/80 
f 80/82/80 36/38/36 38/40/38 
f 40/42/40 82/84/82 81/83/81 
f 81/83/81 38/40/38 40/42/40 
f 3/3/3 64/65/64 82/84/82 
f 82/84/82 40/42/40 3/3/3 
f 41/43/41 83/85/83 84/86/84 
f 84/86/84 42/44/42 41/43/41 
f 42/44/42 84/86/84 85/87/85 
f 85/87/85 44/46/44 42/44/42 
f 44/46/44 85/87/85 86/88/86 
f 86/88/86 45/47/45 44/46/44 
f 45/47/45 86/88/86 87/89/87 
f 87/89/87 46/48/46 45/47/45 
f 46/49/46 87/90/87 88/91/88 
f 88/91/88 47/50/47 46/49/46 
f 47/50/47 88/91/88 89/92/89 
f 89/92/89 48/51/48 47/50/47 
f 48/51/48 89/92/89 90/93/90 
f 90/93/90 49/52/49 48/51/48 
f 49/52/49 90/93/90 91/94/91 
f 91/94/91 50/53/50 49/52/49 
f 50/53/50 91/94/91 92/95/92 
f 92/95/92 51/54/51 50/53/50 
f 51/54/51 92/95/92 93/96/93 
f 93/96/93 52/55/52 51/54/51 
f 52/55/52 93/96/93 94/97/94 
f 94/97/94 53/56/53 52/55/52 
f 53/56/53 94/97/94 95/98/95 
f 95/98/95 54/57/54 53/56/53 
f 54/57/54 95/98/95 96/99/96 
f 96/99/96 55/58/55 54/57/54 
f 55/58/55 96/99/96 97/45/97 
f 97/45/97 56/45/56 55/58/55 
f 56/45/56 97/45/97 98/100/98 
f 98/100/98 57/59/57 56/45/56 
f 57/59/57 98/100/98 99/101/99 
f 99/101/99 58/60/58 57/59/57 
f 58/60/58 99/101/99 100/102/100 
f 100/102/100 59/61/59 58/60/58 
f 59/61/59 100/102/100 101/103/101 
f 101/103/101 60/62/60 59/61/59 
f 60/62/60 101/103/101 102/104/102 
f 102/104/102 61/63/61 60/62/60 
f 61/63/61 102/104/102 83/85/83 
f 83/85/83 41/43/41 61/63/61 
f 103/105/103 104/106/104 64/65/64 
f 64/65/64 63/64/63 103/105/103 
f 105/107/105 103/105/103 63/64/63 
f 63/64/63 65/66/65 105/107/105 
f 106/108/106 105/107/105 65/66/65 
f 65/66/65 66/67/66 106/108/106 
f 107/109/107 106/108/106 66/67/66 
f 66/67/66 67/68/67 107/109/107 
f 108/110/108 107/111/107 67/70/67 
f 67/70/67 68/69/68 108/110/108 
f 109/112/109 108/110/108 68/69/68 
f 68/69/68 69/71/69 109/112/109 
f 110/113/110 109/112/109 69/71/69 
f 69/71/69 70/72/70 110/113/110 
f 111/114/111 110/113/110 70/72/70 
f 70/72/70 71/73/71 111/114/111 
f 112/115/112 111/114/111 71/73/71 
f 71/73/71 72/74/72 112/115/112 
f 113/116/113 112/115/112 72/74/72 
f 72/74/72 73/75/73 113/116/113 
f 114/117/114 113/116/113 73/75/73 
f 73/75/73 74/76/74 114/117/114 
f 115/118/115 114/117/114 74/76/74 
f 74/76/74 75/77/75 115/118/115 
f 116/119/116 115/118/115 75/77/75 
f 75/77/75 76/78/76 116/119/116 
f 117/45/117 116/119/116 76/78/76 
f 76/78/76 77/79/77 117/45/117 
f 118/120/118 117/45/117 77/79/77 
f 77/79/77 78/80/78 118/120/118 
f 119/121/119 118/120/118 78/80/78 
f 78/80/78 79/81/79 119/121/119 
f 120/122/120 119/121/119 79/81/79 
f 79/81/79 80/82/80 120/122/120 
f 121/123/121 120/122/120 80/82/80 
f 80/82/80 81/83/81 121/123/121 
f 122/124/122 121/123/121 81/83/81 
f 81/83/81 82/84/82 122/124/122 
f 104/106/104 122/124/122 82/84/82 
f 82/84/82 64/65/64 104/106/104 
f 104/106/104 103/105/103 84/86/84 
f 84/86/84 83/85/83 104/106/104 
f 103/105/103 105/107/105 85/87/85 
f 85/87/85 84/86/84 103/105/103 
f 105/107/105 106/108/106 86/88/86 
f 86/88/86 85/87/85 105/107/105 
f 106/108/106 107/109/107 87/89/87 
f 87/89/87 86/88/86 106/108/106 
f 107/111/107 108/110/108 88/91/88 
f 88/91/88 87/90/87 107/111/107 
f 108/110/108 109/112/109 89/92/89 
f 89/92/89 88/91/88 108/110/108 
f 109/112/109 110/113/110 90/93/90 
f 90/93/90 89/92/89 109/112/109 
f 110/113/110 111/114/111 91/94/91 
f 91/94/91 90/93/90 110/113/110 
f 111/114/111 112/115/112 92/95/92 
f 92/95/92 91/94/91 111/114/111 
f 112/115/112 113/116/113 93/96/93 
f 93/96/93 92/95/92 112/115/112 
f 113/116/113 114/117/114 94/97/94 
f 94/97/94 93/96/93 113/116/113 
f 114/117/114 115/118/115 95/98/95 
f 95/98/95 94/97/94 114/117/114 
f 115/118/115 116/119/116 96/99/96 
f 96/99/96 95/98/95 115/118/115 
f 116/119/116 117/45/117 97/45/97 
f 97/45/97 96/99/96 116/119/116 
f 117/45/117 118/120/118 98/100/98 
f 98/100/98 97/45/97 117/45/117 
f 118/120/118 119/121/119 99/101/99 
f 99/101/99 98/100/98 118/120/118 
f 119/121/119 120/122/120 100/102/100 
f 100/102/100 99/101/99 119/121/119 
f 120/122/120 121/123/121 101/103/101 
f 101/103/101 100/102/100 120/122/120 
f 121/123/121 122/124/122 102/104/102 
f 102/104/102 101/103/101 121/123/121 
f 122/124/122 104/106/104 83/85/83 
f 83/85/83 102/104/102 122/124/122 
# 240 faces

