# 3ds Max Wavefront OBJ Exporter v0.99 - (c)2007 guruware
# File Created: 12.07.2025 13:56:54

#
# object Object002
#

v  0.2874 0.0210 -0.9497
v  0.2979 0.0210 -0.9323
v  0.2819 0.0049 -0.9342
v  0.0203 0.9790 -0.9920
v  0.0047 0.9790 -0.9788
v  0.0207 0.9951 -0.9756
v  0.0213 0.0207 -0.7516
v  0.0049 0.0209 -0.7707
v  0.0210 0.0048 -0.7680
v  0.2120 0.9793 -0.7213
v  0.2335 0.9791 -0.7345
v  0.2173 0.9952 -0.7369
v  0.0209 0.0049 -0.9758
v  0.0047 0.0210 -0.9788
v  0.0203 0.0210 -0.9920
v  0.2173 0.0048 -0.7369
v  0.2335 0.0207 -0.7345
v  0.2121 0.0209 -0.7213
v  0.2817 0.9951 -0.9345
v  0.2979 0.9790 -0.9323
v  0.2874 0.9790 -0.9497
v  0.0210 0.9952 -0.7680
v  0.0049 0.9793 -0.7707
v  0.0213 0.9791 -0.7516
v  0.2760 0.0136 -0.9311
v  0.2886 0.0261 -0.9295
v  0.2806 0.0262 -0.9428
v  0.0251 0.9864 -0.9709
v  0.0128 0.9739 -0.9732
v  0.0245 0.9738 -0.9833
v  0.0269 0.0131 -0.7727
v  0.0137 0.0257 -0.7752
v  0.0268 0.0259 -0.7595
v  0.2133 0.9869 -0.7432
v  0.2266 0.9743 -0.7415
v  0.2092 0.9741 -0.7306
v  0.0245 0.0261 -0.9833
v  0.0127 0.0262 -0.9732
v  0.0248 0.0136 -0.9705
v  0.2090 0.0257 -0.7307
v  0.2266 0.0259 -0.7413
v  0.2135 0.0130 -0.7433
v  0.2805 0.9739 -0.9427
v  0.2887 0.9738 -0.9295
v  0.2763 0.9864 -0.9307
v  0.0270 0.9743 -0.7595
v  0.0136 0.9741 -0.7750
v  0.0267 0.9870 -0.7729
# 48 vertices

vn -0.0255 -0.4870 -0.8730
vn 0.9667 0.1453 -0.2106
vn -0.2130 -0.8178 -0.5346
vn 0.2941 0.4870 -0.8224
vn -0.8543 -0.1453 -0.4990
vn 0.3677 0.8178 -0.4426
vn -0.5200 0.3125 0.7950
vn -0.8665 0.3125 0.3892
vn 0.1392 -0.8956 0.4225
vn 0.2489 -0.3125 0.9167
vn 0.7038 -0.3125 0.6379
vn -0.2629 0.8956 0.3588
vn 0.3725 -0.8197 -0.4351
vn -0.8555 0.1465 -0.4967
vn 0.2941 -0.4870 -0.8224
vn -0.2618 -0.8928 0.3665
vn 0.7024 0.3109 0.6403
vn 0.2489 0.3125 0.9167
vn -0.2199 0.8197 -0.5289
vn 0.9671 -0.1465 -0.2080
vn -0.0255 0.4870 -0.8730
vn 0.1357 0.8928 0.4295
vn -0.8659 -0.3109 0.3919
vn -0.5200 -0.3125 0.7950
vn 0.1106 -0.7071 -0.6984
vn -0.6494 0.0000 -0.7604
vn 0.1106 0.7071 -0.6984
vn 0.8526 0.0000 -0.5225
vn -0.7604 0.0000 0.6494
vn -0.1106 -0.7071 0.6984
vn 0.5225 0.0000 0.8526
vn -0.1106 0.7071 0.6984
vn 0.6725 -0.7071 0.2185
vn -0.7071 -0.7071 -0.0000
vn -0.7071 0.7071 -0.0000
vn 0.6725 0.7071 0.2185
vn -0.9863 -0.1383 -0.0895
vn 0.1353 0.9411 0.3099
vn -0.8788 0.2719 -0.3922
vn 0.9657 0.1383 0.2197
vn -0.2245 -0.9411 0.2529
vn 0.9570 -0.2719 -0.1015
vn 0.9413 -0.2192 -0.2568
vn -0.1544 0.9612 -0.2287
vn 0.2015 0.9614 0.1872
vn -0.8158 0.2192 -0.5351
vn 0.2175 -0.9612 -0.1698
vn -0.2494 -0.9614 0.1157
vn 0.9570 0.2719 -0.1015
vn -0.2283 0.9390 0.2570
vn 0.9613 -0.1494 0.2315
vn -0.2494 0.9614 0.1157
vn 0.2130 0.9627 -0.1671
vn -0.8241 -0.2100 -0.5262
vn -0.8788 -0.2719 -0.3922
vn 0.1377 -0.9390 0.3150
vn -0.9858 0.1494 -0.0769
vn 0.2015 -0.9614 0.1872
vn -0.1509 -0.9627 -0.2248
vn 0.9463 0.2100 -0.2458
vn -0.1107 0.7067 0.6988
vn 0.6494 0.0000 0.7604
vn -0.1107 -0.7067 0.6988
vn -0.8526 0.0000 0.5225
vn 0.7604 0.0000 -0.6494
vn 0.1103 0.7090 -0.6965
vn -0.5225 0.0000 -0.8526
vn 0.1103 -0.7090 -0.6965
vn -0.6699 0.7085 -0.2221
vn -0.6697 0.7087 -0.2220
vn -0.6717 0.7064 -0.2230
vn -0.6719 0.7062 -0.2231
vn 0.7078 0.7064 -0.0042
vn 0.7079 0.7063 -0.0042
vn 0.7057 0.7085 -0.0045
vn 0.7056 0.7086 -0.0045
vn 0.7057 -0.7085 -0.0042
vn 0.7055 -0.7087 -0.0042
vn 0.7078 -0.7064 -0.0045
vn 0.7080 -0.7062 -0.0046
vn -0.6718 -0.7064 -0.2227
vn -0.6720 -0.7063 -0.2228
vn -0.6698 -0.7085 -0.2224
vn -0.6696 -0.7086 -0.2223
vn 0.0854 0.8377 -0.5394
vn -0.1398 -0.4489 0.8826
vn -0.5791 0.0000 0.8152
vn 0.0854 -0.8377 -0.5394
vn -0.1398 0.4489 0.8826
vn 0.2988 0.0000 0.9543
vn 0.8047 0.0000 0.5937
vn -0.4605 0.0000 -0.8876
vn 0.1276 -0.5783 -0.8058
vn -0.9488 0.0000 0.3160
vn 0.7123 0.0000 -0.7019
vn 0.1276 0.5783 -0.8058
# 96 vertex normals

vt -0.0468 0.0200 1.0000
vt -0.0500 0.0200 1.0000
vt -0.0468 0.0000 1.0000
vt -0.0032 0.9800 1.0000
vt 0.0000 0.9800 1.0000
vt -0.0032 1.0000 1.0000
vt -0.0043 0.0200 1.0000
vt 0.0000 0.0200 1.0000
vt -0.0043 0.0000 1.0000
vt -0.0457 0.9800 1.0000
vt -0.0500 0.9800 1.0000
vt -0.0457 1.0000 1.0000
vt -0.0032 0.0200 1.0000
vt -0.0469 0.0000 1.0000
vt -0.0457 0.0200 1.0000
vt -0.0468 0.9800 1.0000
vt -0.0031 1.0000 1.0000
vt -0.0043 0.9800 1.0000
# 18 texture coords

o Object002
g Object002
s 2
f 1/1/1 2/2/2 3/3/3 
f 4/4/4 5/5/5 6/6/6 
f 7/7/7 8/8/8 9/9/9 
f 10/10/10 11/11/11 12/12/12 
f 13/9/13 14/8/14 15/13/15 
f 16/14/16 17/2/17 18/15/18 
f 19/12/19 20/11/20 21/16/21 
f 22/17/22 23/5/23 24/18/24 
s 4
f 3/3/25 13/9/25 15/13/25 
f 15/13/25 1/1/25 3/3/25 
s 8
f 14/8/26 5/5/26 4/4/26 
f 4/4/26 15/13/26 14/8/26 
s 4
f 6/6/27 19/12/27 21/16/27 
f 21/16/27 4/4/27 6/6/27 
s 8
f 20/11/28 2/2/28 1/1/28 
f 1/1/28 21/16/28 20/11/28 
s 4
f 23/5/29 8/8/29 7/7/29 
f 7/7/29 24/18/29 23/5/29 
s 8
f 9/9/30 16/14/30 18/15/30 
f 18/15/30 7/7/30 9/9/30 
s 4
f 17/2/31 11/11/31 10/10/31 
f 10/10/31 18/15/31 17/2/31 
s 8
f 12/12/32 22/17/32 24/18/32 
f 24/18/32 10/10/32 12/12/32 
s 16
f 2/2/33 17/2/33 16/14/33 
f 16/14/33 3/3/33 2/2/33 
f 8/8/34 14/8/34 13/9/34 
f 13/9/34 9/9/34 8/8/34 
f 5/5/35 23/5/35 22/17/35 
f 22/17/35 6/6/35 5/5/35 
f 11/11/36 20/11/36 19/12/36 
f 19/12/36 12/12/36 11/11/36 
s 2
f 25/3/37 26/2/38 27/1/39 
f 28/6/40 29/5/41 30/4/42 
f 31/9/43 32/8/44 33/7/45 
f 34/12/46 35/11/47 36/10/48 
f 37/13/49 38/8/50 39/9/51 
f 40/15/52 41/2/53 42/14/54 
f 43/16/55 44/11/56 45/12/57 
f 46/18/58 47/5/59 48/17/60 
s 4
f 37/13/61 39/9/61 25/3/61 
f 25/3/61 27/1/61 37/13/61 
s 8
f 30/4/62 29/5/62 38/8/62 
f 38/8/62 37/13/62 30/4/62 
s 4
f 43/16/63 45/12/63 28/6/63 
f 28/6/63 30/4/63 43/16/63 
s 8
f 27/1/64 26/2/64 44/11/64 
f 44/11/64 43/16/64 27/1/64 
s 4
f 33/7/65 32/8/65 47/5/65 
f 47/5/65 46/18/65 33/7/65 
s 8
f 40/15/66 42/14/66 31/9/66 
f 31/9/66 33/7/66 40/15/66 
s 4
f 36/10/67 35/11/67 41/2/67 
f 41/2/67 40/15/67 36/10/67 
s 8
f 46/18/68 48/17/68 34/12/68 
f 34/12/68 36/10/68 46/18/68 
s 16
f 42/14/69 41/2/70 26/2/71 
f 26/2/71 25/3/72 42/14/69 
f 39/9/73 38/8/74 32/8/75 
f 32/8/75 31/9/76 39/9/73 
f 48/17/77 47/5/78 29/5/79 
f 29/5/79 28/6/80 48/17/77 
f 45/12/81 44/11/82 35/11/83 
f 35/11/83 34/12/84 45/12/81 
s 1
f 37/13/85 27/1/85 1/1/85 
f 1/1/85 15/13/85 37/13/85 
f 25/3/86 39/9/86 13/9/86 
f 13/9/86 3/3/86 25/3/86 
s 2
f 30/4/42 37/13/49 15/13/15 
f 15/13/15 4/4/4 30/4/42 
s 1
f 38/8/87 29/5/87 5/5/87 
f 5/5/87 14/8/87 38/8/87 
f 43/16/88 30/4/88 4/4/88 
f 4/4/88 21/16/88 43/16/88 
f 28/6/89 45/12/89 19/12/89 
f 19/12/89 6/6/89 28/6/89 
s 2
f 27/1/39 43/16/55 21/16/21 
f 21/16/21 1/1/1 27/1/39 
s 1
f 44/11/90 26/2/90 2/2/90 
f 2/2/90 20/11/90 44/11/90 
f 33/7/91 46/18/91 24/18/91 
f 24/18/91 7/7/91 33/7/91 
f 47/5/92 32/8/92 8/8/92 
f 8/8/92 23/5/92 47/5/92 
s 2
f 40/15/52 33/7/45 7/7/7 
f 7/7/7 18/15/18 40/15/52 
s 1
f 31/9/93 42/14/93 16/14/93 
f 16/14/93 9/9/93 31/9/93 
f 36/10/94 40/15/94 18/15/94 
f 18/15/94 10/10/94 36/10/94 
f 41/2/95 35/11/95 11/11/95 
f 11/11/95 17/2/95 41/2/95 
s 2
f 46/18/58 36/10/48 10/10/10 
f 10/10/10 24/18/24 46/18/58 
s 1
f 34/12/96 48/17/96 22/17/96 
f 22/17/96 12/12/96 34/12/96 
s 2
f 42/14/54 25/3/37 3/3/3 
f 3/3/3 16/14/16 42/14/54 
f 26/2/38 41/2/53 17/2/17 
f 17/2/17 2/2/2 26/2/38 
f 39/9/51 31/9/43 9/9/9 
f 9/9/9 13/9/13 39/9/51 
f 32/8/44 38/8/50 14/8/14 
f 14/8/14 8/8/8 32/8/44 
f 48/17/60 28/6/40 6/6/6 
f 6/6/6 22/17/22 48/17/60 
f 29/5/41 47/5/59 23/5/23 
f 23/5/23 5/5/5 29/5/41 
f 45/12/57 34/12/46 12/12/12 
f 12/12/12 19/12/19 45/12/57 
f 35/11/47 44/11/56 20/11/20 
f 20/11/20 11/11/11 35/11/47 
# 112 faces

