# 3ds Max Wavefront OBJ Exporter v0.99 - (c)2007 guruware
# File Created: 10.07.2025 16:21:04

#
# object Cylinder001
#

v  0.9511 0.0000 -0.3090
v  0.9511 1.0000 -0.3090
v  1.0000 1.0000 -0.0000
v  1.0000 0.0000 -0.0000
v  0.8090 0.0000 -0.5878
v  0.8090 1.0000 -0.5878
v  0.5878 0.0000 -0.8090
v  0.5878 1.0000 -0.8090
v  0.3090 0.0000 -0.9511
v  0.3090 1.0000 -0.9511
v  -0.0000 0.0000 -1.0000
v  -0.0000 1.0000 -1.0000
v  -0.3090 0.0000 -0.9511
v  -0.3090 1.0000 -0.9511
v  -0.5878 0.0000 -0.8090
v  -0.5878 1.0000 -0.8090
v  -0.8090 0.0000 -0.5878
v  -0.8090 1.0000 -0.5878
v  -0.9511 0.0000 -0.3090
v  -0.9511 1.0000 -0.3090
v  -1.0000 0.0000 0.0000
v  -1.0000 1.0000 0.0000
v  -0.9511 0.0000 0.3090
v  -0.9511 1.0000 0.3090
v  -0.8090 0.0000 0.5878
v  -0.8090 1.0000 0.5878
v  -0.5878 0.0000 0.8090
v  -0.5878 1.0000 0.8090
v  -0.3090 0.0000 0.9511
v  -0.3090 1.0000 0.9511
v  0.0000 0.0000 1.0000
v  0.0000 1.0000 1.0000
v  0.3090 0.0000 0.9511
v  0.3090 1.0000 0.9511
v  0.5878 0.0000 0.8090
v  0.5878 1.0000 0.8090
v  0.8090 0.0000 0.5878
v  0.8090 1.0000 0.5878
v  0.9511 0.0000 0.3090
v  0.9511 1.0000 0.3090
v  0.0000 1.0000 -0.0000
v  0.0000 0.0000 -0.0000
# 42 vertices

vn 0.9511 0.0000 -0.3090
vn 1.0000 0.0000 -0.0000
vn 0.8090 0.0000 -0.5878
vn 0.5878 0.0000 -0.8090
vn 0.3090 0.0000 -0.9511
vn -0.0000 0.0000 -1.0000
vn -0.3090 0.0000 -0.9511
vn -0.5878 0.0000 -0.8090
vn -0.8090 0.0000 -0.5878
vn -0.9511 0.0000 -0.3090
vn -1.0000 0.0000 0.0000
vn -0.9511 0.0000 0.3090
vn -0.8090 0.0000 0.5878
vn -0.5878 0.0000 0.8090
vn -0.3090 0.0000 0.9511
vn 0.0000 0.0000 1.0000
vn 0.3090 0.0000 0.9511
vn 0.5878 0.0000 0.8090
vn 0.8090 0.0000 0.5878
vn 0.9511 0.0000 0.3090
vn 0.0000 1.0000 -0.0000
vn 0.0000 -1.0000 -0.0000
# 22 vertex normals

vt 0.8000 0.0000 1.0000
vt 0.8000 1.0000 1.0000
vt 0.7500 1.0000 1.0000
vt 0.7500 0.0000 1.0000
vt 0.8500 0.0000 1.0000
vt 0.8500 1.0000 1.0000
vt 0.9000 0.0000 1.0000
vt 0.9000 1.0000 1.0000
vt 0.9500 0.0000 1.0000
vt 0.9500 1.0000 1.0000
vt -0.0500 0.0000 1.0000
vt 0.0000 0.0000 1.0000
vt 0.0000 1.0000 1.0000
vt -0.0500 1.0000 1.0000
vt 0.0500 0.0000 1.0000
vt 0.0500 1.0000 1.0000
vt 0.1000 0.0000 1.0000
vt 0.1000 1.0000 1.0000
vt 0.1500 0.0000 1.0000
vt 0.1500 1.0000 1.0000
vt 0.2000 0.0000 1.0000
vt 0.2000 1.0000 1.0000
vt 0.2500 0.0000 1.0000
vt 0.2500 1.0000 1.0000
vt 0.3000 0.0000 1.0000
vt 0.3000 1.0000 1.0000
vt 0.3500 0.0000 1.0000
vt 0.3500 1.0000 1.0000
vt 0.4000 0.0000 1.0000
vt 0.4000 1.0000 1.0000
vt 0.4500 0.0000 1.0000
vt 0.4500 1.0000 1.0000
vt 0.5000 0.0000 1.0000
vt 0.5000 1.0000 1.0000
vt 0.5500 0.0000 1.0000
vt 0.5500 1.0000 1.0000
vt 0.6000 0.0000 1.0000
vt 0.6000 1.0000 1.0000
vt 0.6500 0.0000 1.0000
vt 0.6500 1.0000 1.0000
vt 0.7000 0.0000 1.0000
vt 0.7000 1.0000 1.0000
# 42 texture coords

o Cylinder001
g Cylinder001
s 8
f 1/1/1 2/2/1 3/3/2 
f 3/3/2 4/4/2 1/1/1 
f 1/1/1 5/5/3 6/6/3 
f 6/6/3 2/2/1 1/1/1 
f 5/5/3 7/7/4 8/8/4 
f 8/8/4 6/6/3 5/5/3 
f 7/7/4 9/9/5 10/10/5 
f 10/10/5 8/8/4 7/7/4 
f 9/11/5 11/12/6 12/13/6 
f 12/13/6 10/14/5 9/11/5 
f 11/12/6 13/15/7 14/16/7 
f 14/16/7 12/13/6 11/12/6 
f 13/15/7 15/17/8 16/18/8 
f 16/18/8 14/16/7 13/15/7 
f 15/17/8 17/19/9 18/20/9 
f 18/20/9 16/18/8 15/17/8 
f 17/19/9 19/21/10 20/22/10 
f 20/22/10 18/20/9 17/19/9 
f 19/21/10 21/23/11 22/24/11 
f 22/24/11 20/22/10 19/21/10 
f 21/23/11 23/25/12 24/26/12 
f 24/26/12 22/24/11 21/23/11 
f 23/25/12 25/27/13 26/28/13 
f 26/28/13 24/26/12 23/25/12 
f 25/27/13 27/29/14 28/30/14 
f 28/30/14 26/28/13 25/27/13 
f 27/29/14 29/31/15 30/32/15 
f 30/32/15 28/30/14 27/29/14 
f 29/31/15 31/33/16 32/34/16 
f 32/34/16 30/32/15 29/31/15 
f 31/33/16 33/35/17 34/36/17 
f 34/36/17 32/34/16 31/33/16 
f 33/35/17 35/37/18 36/38/18 
f 36/38/18 34/36/17 33/35/17 
f 35/37/18 37/39/19 38/40/19 
f 38/40/19 36/38/18 35/37/18 
f 37/39/19 39/41/20 40/42/20 
f 40/42/20 38/40/19 37/39/19 
f 39/41/20 4/4/2 3/3/2 
f 3/3/2 40/42/20 39/41/20 
s off
f 3/3/21 2/2/21 41/32/21 
f 2/2/21 6/6/21 41/32/21 
f 6/6/21 8/8/21 41/32/21 
f 8/8/21 10/10/21 41/32/21 
f 10/14/21 12/13/21 41/32/21 
f 12/13/21 14/16/21 41/32/21 
f 14/16/21 16/18/21 41/32/21 
f 16/18/21 18/20/21 41/32/21 
f 18/20/21 20/22/21 41/32/21 
f 20/22/21 22/24/21 41/32/21 
f 22/24/21 24/26/21 41/32/21 
f 24/26/21 26/28/21 41/32/21 
f 26/28/21 28/30/21 41/32/21 
f 28/30/21 30/32/21 41/32/21 
f 30/32/21 32/34/21 41/32/21 
f 32/34/21 34/36/21 41/32/21 
f 34/36/21 36/38/21 41/32/21 
f 36/38/21 38/40/21 41/32/21 
f 38/40/21 40/42/21 41/32/21 
f 40/42/21 3/3/21 41/32/21 
f 1/1/22 4/4/22 42/31/22 
f 5/5/22 1/1/22 42/31/22 
f 7/7/22 5/5/22 42/31/22 
f 9/9/22 7/7/22 42/31/22 
f 11/12/22 9/11/22 42/31/22 
f 13/15/22 11/12/22 42/31/22 
f 15/17/22 13/15/22 42/31/22 
f 17/19/22 15/17/22 42/31/22 
f 19/21/22 17/19/22 42/31/22 
f 21/23/22 19/21/22 42/31/22 
f 23/25/22 21/23/22 42/31/22 
f 25/27/22 23/25/22 42/31/22 
f 27/29/22 25/27/22 42/31/22 
f 29/31/22 27/29/22 42/31/22 
f 31/33/22 29/31/22 42/31/22 
f 33/35/22 31/33/22 42/31/22 
f 35/37/22 33/35/22 42/31/22 
f 37/39/22 35/37/22 42/31/22 
f 39/41/22 37/39/22 42/31/22 
f 4/4/22 39/41/22 42/31/22 
# 80 faces

