# 3ds Max Wavefront OBJ Exporter v0.99 - (c)2007 guruware
# File Created: 12.07.2025 16:59:15

mtllib yuanzhu.mtl

#
# object Cylinder002
#

v  0.9511 0.8846 -0.3090
v  1.0000 0.8846 -0.0000
v  1.0000 0.0000 -0.0000
v  0.9511 0.0000 -0.3090
v  0.8090 0.0000 -0.5878
v  0.8090 0.8846 -0.5878
v  0.5878 0.0000 -0.8090
v  0.5878 0.8846 -0.8090
v  0.3090 0.0000 -0.9511
v  0.3090 0.8846 -0.9511
v  0.0000 0.0000 -1.0000
v  0.0000 0.8846 -1.0000
v  -0.3090 0.0000 -0.9511
v  -0.3090 0.8846 -0.9511
v  -0.5878 0.0000 -0.8090
v  -0.5878 0.8846 -0.8090
v  -0.8090 0.0000 -0.5878
v  -0.8090 0.8846 -0.5878
v  -0.9511 0.0000 -0.3090
v  -0.9511 0.8846 -0.3090
v  -1.0000 0.0000 -0.0000
v  -1.0000 0.8846 -0.0000
v  -0.9511 0.0000 0.3090
v  -0.9511 0.8846 0.3090
v  -0.8090 0.0000 0.5878
v  -0.8090 0.8846 0.5878
v  -0.5878 0.0000 0.8090
v  -0.5878 0.8846 0.8090
v  -0.3090 0.0000 0.9511
v  -0.3090 0.8846 0.9511
v  0.0000 0.0000 1.0000
v  0.0000 0.8846 1.0000
v  0.3090 0.0000 0.9511
v  0.3090 0.8846 0.9511
v  0.5878 0.0000 0.8090
v  0.5878 0.8846 0.8090
v  0.8090 0.0000 0.5878
v  0.8090 0.8846 0.5878
v  0.9511 0.0000 0.3090
v  0.9511 0.8846 0.3090
v  0.8832 1.0000 -0.0000
v  0.8400 1.0000 -0.2729
v  0.0000 1.0000 -0.0000
v  0.7145 1.0000 -0.5191
v  0.5191 1.0000 -0.7145
v  0.2729 1.0000 -0.8400
v  0.0000 1.0000 -0.8832
v  -0.2729 1.0000 -0.8400
v  -0.5191 1.0000 -0.7145
v  -0.7145 1.0000 -0.5191
v  -0.8400 1.0000 -0.2729
v  -0.8832 1.0000 -0.0000
v  -0.8400 1.0000 0.2729
v  -0.7145 1.0000 0.5191
v  -0.5191 1.0000 0.7145
v  -0.2729 1.0000 0.8400
v  0.0000 1.0000 0.8832
v  0.2729 1.0000 0.8400
v  0.5191 1.0000 0.7145
v  0.7145 1.0000 0.5191
v  0.8400 1.0000 0.2729
v  0.0000 0.0000 -0.0000
v  0.9442 0.9351 -0.3067
v  0.9927 0.9351 -0.0000
v  0.9233 0.9712 -0.3000
v  0.9708 0.9712 -0.0000
v  0.8031 0.9351 -0.5835
v  0.7854 0.9712 -0.5706
v  0.5835 0.9351 -0.8031
v  0.5706 0.9712 -0.7854
v  0.3067 0.9351 -0.9442
v  0.3000 0.9712 -0.9233
v  0.0000 0.9351 -0.9927
v  0.0000 0.9712 -0.9708
v  -0.3067 0.9351 -0.9442
v  -0.3000 0.9712 -0.9233
v  -0.5835 0.9351 -0.8031
v  -0.5706 0.9712 -0.7854
v  -0.8031 0.9351 -0.5835
v  -0.7854 0.9712 -0.5706
v  -0.9442 0.9351 -0.3067
v  -0.9233 0.9712 -0.3000
v  -0.9927 0.9351 -0.0000
v  -0.9708 0.9712 -0.0000
v  -0.9442 0.9351 0.3067
v  -0.9233 0.9712 0.3000
v  -0.8031 0.9351 0.5835
v  -0.7854 0.9712 0.5706
v  -0.5835 0.9351 0.8031
v  -0.5706 0.9712 0.7854
v  -0.3067 0.9351 0.9442
v  -0.3000 0.9712 0.9233
v  0.0000 0.9351 0.9927
v  0.0000 0.9712 0.9708
v  0.3067 0.9351 0.9442
v  0.3000 0.9712 0.9233
v  0.5835 0.9351 0.8031
v  0.5706 0.9712 0.7854
v  0.8031 0.9351 0.5835
v  0.7854 0.9712 0.5706
v  0.9442 0.9351 0.3067
v  0.9233 0.9712 0.3000
v  0.9343 0.9928 -0.0000
v  0.8886 0.9928 -0.2887
v  0.7558 0.9928 -0.5492
v  0.5492 0.9928 -0.7558
v  0.2887 0.9928 -0.8886
v  0.0000 0.9928 -0.9343
v  -0.2887 0.9928 -0.8886
v  -0.5492 0.9928 -0.7558
v  -0.7558 0.9928 -0.5492
v  -0.8886 0.9928 -0.2887
v  -0.9343 0.9928 -0.0000
v  -0.8886 0.9928 0.2887
v  -0.7558 0.9928 0.5492
v  -0.5492 0.9928 0.7558
v  -0.2887 0.9928 0.8886
v  0.0000 0.9928 0.9343
v  0.2887 0.9928 0.8886
v  0.5492 0.9928 0.7558
v  0.7558 0.9928 0.5492
v  0.8886 0.9928 0.2887
# 122 vertices

vn 0.9486 0.0710 -0.3083
vn 0.9975 0.0712 0.0000
vn 1.0000 0.0000 -0.0000
vn 0.9511 0.0000 -0.3090
vn 0.8090 0.0000 -0.5878
vn 0.8069 0.0712 -0.5864
vn 0.5878 0.0000 -0.8090
vn 0.5864 0.0712 -0.8069
vn 0.3090 0.0000 -0.9511
vn 0.3083 0.0710 -0.9487
vn 0.0000 0.0000 -1.0000
vn 0.0000 0.0712 -0.9975
vn -0.3090 0.0000 -0.9511
vn -0.3083 0.0710 -0.9486
vn -0.5878 0.0000 -0.8090
vn -0.5864 0.0712 -0.8069
vn -0.8090 0.0000 -0.5878
vn -0.8069 0.0712 -0.5864
vn -0.9511 0.0000 -0.3090
vn -0.9487 0.0710 -0.3083
vn -1.0000 0.0000 -0.0000
vn -0.9975 0.0712 -0.0000
vn -0.9511 0.0000 0.3090
vn -0.9486 0.0710 0.3083
vn -0.8090 0.0000 0.5878
vn -0.8069 0.0712 0.5864
vn -0.5878 0.0000 0.8090
vn -0.5864 0.0712 0.8069
vn -0.3090 0.0000 0.9511
vn -0.3083 0.0710 0.9487
vn -0.0000 0.0000 1.0000
vn -0.0000 0.0712 0.9975
vn 0.3090 0.0000 0.9511
vn 0.3083 0.0710 0.9486
vn 0.5878 0.0000 0.8090
vn 0.5864 0.0712 0.8069
vn 0.8090 0.0000 0.5878
vn 0.8069 0.0712 0.5864
vn 0.9511 0.0000 0.3090
vn 0.9487 0.0710 0.3083
vn 0.0769 0.9970 -0.0000
vn 0.0731 0.9970 -0.0238
vn 0.0000 1.0000 -0.0000
vn 0.0622 0.9970 -0.0452
vn 0.0452 0.9970 -0.0622
vn 0.0238 0.9970 -0.0731
vn -0.0000 0.9970 -0.0769
vn -0.0238 0.9970 -0.0731
vn -0.0452 0.9970 -0.0622
vn -0.0622 0.9970 -0.0452
vn -0.0731 0.9970 -0.0238
vn -0.0769 0.9970 0.0000
vn -0.0731 0.9970 0.0238
vn -0.0622 0.9970 0.0452
vn -0.0452 0.9970 0.0622
vn -0.0238 0.9970 0.0731
vn 0.0000 0.9970 0.0769
vn 0.0238 0.9970 0.0731
vn 0.0452 0.9970 0.0622
vn 0.0622 0.9970 0.0452
vn 0.0731 0.9970 0.0238
vn 0.0000 -1.0000 -0.0000
vn 0.8973 0.3317 -0.2914
vn 0.9434 0.3315 -0.0000
vn 0.6798 0.6994 -0.2210
vn 0.7151 0.6991 -0.0000
vn 0.7632 0.3315 -0.5546
vn 0.5784 0.6992 -0.4202
vn 0.5546 0.3315 -0.7632
vn 0.4202 0.6991 -0.5785
vn 0.2914 0.3317 -0.8973
vn 0.2210 0.6994 -0.6797
vn -0.0000 0.3315 -0.9434
vn -0.0000 0.6991 -0.7151
vn -0.2914 0.3317 -0.8973
vn -0.2210 0.6994 -0.6798
vn -0.5546 0.3315 -0.7632
vn -0.4202 0.6992 -0.5784
vn -0.7632 0.3315 -0.5546
vn -0.5785 0.6991 -0.4202
vn -0.8973 0.3317 -0.2914
vn -0.6797 0.6994 -0.2210
vn -0.9434 0.3315 0.0000
vn -0.7151 0.6991 0.0000
vn -0.8973 0.3317 0.2914
vn -0.6798 0.6994 0.2210
vn -0.7632 0.3315 0.5546
vn -0.5784 0.6992 0.4202
vn -0.5546 0.3315 0.7632
vn -0.4202 0.6991 0.5785
vn -0.2914 0.3317 0.8973
vn -0.2210 0.6994 0.6797
vn 0.0000 0.3315 0.9434
vn 0.0000 0.6991 0.7151
vn 0.2914 0.3317 0.8973
vn 0.2210 0.6994 0.6798
vn 0.5546 0.3315 0.7632
vn 0.4202 0.6992 0.5784
vn 0.7632 0.3315 0.5546
vn 0.5785 0.6991 0.4202
vn 0.8973 0.3317 0.2914
vn 0.6797 0.6994 0.2210
vn 0.3480 0.9375 0.0000
vn 0.3310 0.9375 -0.1076
vn 0.2814 0.9375 -0.2045
vn 0.2046 0.9375 -0.2814
vn 0.1075 0.9375 -0.3310
vn 0.0000 0.9375 -0.3480
vn -0.1076 0.9375 -0.3310
vn -0.2045 0.9375 -0.2814
vn -0.2814 0.9375 -0.2046
vn -0.3310 0.9375 -0.1075
vn -0.3480 0.9375 -0.0000
vn -0.3310 0.9375 0.1076
vn -0.2814 0.9375 0.2045
vn -0.2046 0.9375 0.2814
vn -0.1075 0.9375 0.3310
vn -0.0000 0.9375 0.3480
vn 0.1076 0.9375 0.3310
vn 0.2045 0.9375 0.2814
vn 0.2814 0.9375 0.2046
vn 0.3310 0.9375 0.1075
# 122 vertex normals

vt 0.1235 0.8654 0.5001
vt 0.0779 0.8654 0.5001
vt 0.0779 0.0582 0.5001
vt 0.1235 0.0582 0.5001
vt 0.1692 0.0582 0.5001
vt 0.1692 0.8654 0.5001
vt 0.2148 0.0582 0.5001
vt 0.2148 0.8654 0.5001
vt 0.2604 0.0582 0.5001
vt 0.2604 0.8654 0.5001
vt 0.3060 0.0582 0.5001
vt 0.3060 0.8654 0.5001
vt 0.3517 0.0582 0.5001
vt 0.3517 0.8654 0.5001
vt 0.3973 0.0582 0.5001
vt 0.3973 0.8654 0.5001
vt 0.4429 0.0582 0.5001
vt 0.4429 0.8654 0.5001
vt 0.4885 0.0582 0.5001
vt 0.4885 0.8654 0.5001
vt 0.5342 0.0582 0.5001
vt 0.5342 0.8654 0.5001
vt 0.5798 0.0582 0.5001
vt 0.5798 0.8654 0.5001
vt 0.6254 0.0582 0.5001
vt 0.6254 0.8654 0.5001
vt 0.6710 0.0582 0.5001
vt 0.6710 0.8654 0.5001
vt 0.7167 0.0582 0.5001
vt 0.7167 0.8654 0.5001
vt 0.7623 0.0582 0.5001
vt 0.7623 0.8654 0.5001
vt 0.8079 0.0582 0.5001
vt 0.8079 0.8654 0.5001
vt 0.8535 0.0582 0.5001
vt 0.8535 0.8654 0.5001
vt 0.8991 0.0582 0.5001
vt 0.8991 0.8654 0.5001
vt 0.9448 0.0582 0.5001
vt 0.9448 0.8654 0.5001
vt 0.0323 0.8654 0.5001
vt 0.0323 0.0582 0.5001
vt 0.0779 0.9707 0.4417
vt 0.1235 0.9707 0.4417
vt 0.2574 0.9707 0.0000
vt 0.1692 0.9707 0.4417
vt 0.2148 0.9707 0.4417
vt 0.2604 0.9707 0.4417
vt 0.3060 0.9707 0.4417
vt 0.3517 0.9707 0.4417
vt 0.3973 0.9707 0.4417
vt 0.4429 0.9707 0.4417
vt 0.4885 0.9707 0.4417
vt 0.5342 0.9707 0.4417
vt 0.5798 0.9707 0.4417
vt 0.6254 0.9707 0.4417
vt 0.6710 0.9707 0.4417
vt 0.7167 0.9707 0.4417
vt 0.7623 0.9707 0.4417
vt 0.8079 0.9707 0.4417
vt 0.8535 0.9707 0.4417
vt 0.8991 0.9707 0.4417
vt 0.9448 0.9707 0.4417
vt 1.1699 0.9707 0.0000
vt 0.0323 0.9707 0.4417
vt 1.0360 0.0582 0.5001
vt 0.9904 0.0582 0.5001
vt 0.7137 0.0582 0.0000
vt 1.0816 0.0582 0.5001
vt 1.1273 0.0582 0.5001
vt 0.1235 0.9115 0.4965
vt 0.0779 0.9115 0.4964
vt 0.1235 0.9444 0.4855
vt 0.0779 0.9444 0.4855
vt 0.1692 0.9115 0.4964
vt 0.1692 0.9444 0.4855
vt 0.2148 0.9115 0.4964
vt 0.2148 0.9444 0.4855
vt 0.2604 0.9115 0.4965
vt 0.2604 0.9444 0.4855
vt 0.3060 0.9115 0.4964
vt 0.3060 0.9444 0.4855
vt 0.3516 0.9115 0.4965
vt 0.3517 0.9444 0.4855
vt 0.3973 0.9115 0.4964
vt 0.3973 0.9444 0.4855
vt 0.4429 0.9115 0.4964
vt 0.4429 0.9444 0.4855
vt 0.4885 0.9115 0.4965
vt 0.4885 0.9444 0.4855
vt 0.5342 0.9115 0.4964
vt 0.5342 0.9444 0.4855
vt 0.5798 0.9115 0.4965
vt 0.5798 0.9444 0.4855
vt 0.6254 0.9115 0.4964
vt 0.6254 0.9444 0.4855
vt 0.6710 0.9115 0.4964
vt 0.6710 0.9444 0.4855
vt 0.7167 0.9115 0.4965
vt 0.7166 0.9444 0.4855
vt 0.7623 0.9115 0.4964
vt 0.7623 0.9444 0.4855
vt 0.8079 0.9115 0.4965
vt 0.8079 0.9444 0.4855
vt 0.8535 0.9115 0.4964
vt 0.8535 0.9444 0.4855
vt 0.8991 0.9115 0.4964
vt 0.8991 0.9444 0.4855
vt 0.9448 0.9115 0.4965
vt 0.9448 0.9444 0.4855
vt 0.0323 0.9115 0.4965
vt 0.0323 0.9444 0.4855
vt 0.0779 0.9642 0.4672
vt 0.1235 0.9642 0.4672
vt 0.1692 0.9642 0.4672
vt 0.2148 0.9642 0.4672
vt 0.2604 0.9642 0.4672
vt 0.3060 0.9642 0.4672
vt 0.3517 0.9642 0.4672
vt 0.3973 0.9642 0.4672
vt 0.4429 0.9642 0.4672
vt 0.4885 0.9642 0.4672
vt 0.5342 0.9642 0.4672
vt 0.5798 0.9642 0.4672
vt 0.6254 0.9642 0.4672
vt 0.6710 0.9642 0.4672
vt 0.7167 0.9642 0.4672
vt 0.7623 0.9642 0.4672
vt 0.8079 0.9642 0.4672
vt 0.8535 0.9642 0.4672
vt 0.8991 0.9642 0.4672
vt 0.9448 0.9642 0.4672
vt 0.0323 0.9642 0.4672
# 133 texture coords

o Cylinder002
g Cylinder002
usemtl yuanzhu01
s 1
f 1/1/1 2/2/2 3/3/3 
f 3/3/3 4/4/4 1/1/1 
f 5/5/5 6/6/6 1/1/1 
f 1/1/1 4/4/4 5/5/5 
f 7/7/7 8/8/8 6/6/6 
f 6/6/6 5/5/5 7/7/7 
f 9/9/9 10/10/10 8/8/8 
f 8/8/8 7/7/7 9/9/9 
f 11/11/11 12/12/12 10/10/10 
f 10/10/10 9/9/9 11/11/11 
f 13/13/13 14/14/14 12/12/12 
f 12/12/12 11/11/11 13/13/13 
f 15/15/15 16/16/16 14/14/14 
f 14/14/14 13/13/13 15/15/15 
f 17/17/17 18/18/18 16/16/16 
f 16/16/16 15/15/15 17/17/17 
f 19/19/19 20/20/20 18/18/18 
f 18/18/18 17/17/17 19/19/19 
f 21/21/21 22/22/22 20/20/20 
f 20/20/20 19/19/19 21/21/21 
f 23/23/23 24/24/24 22/22/22 
f 22/22/22 21/21/21 23/23/23 
f 25/25/25 26/26/26 24/24/24 
f 24/24/24 23/23/23 25/25/25 
f 27/27/27 28/28/28 26/26/26 
f 26/26/26 25/25/25 27/27/27 
f 29/29/29 30/30/30 28/28/28 
f 28/28/28 27/27/27 29/29/29 
f 31/31/31 32/32/32 30/30/30 
f 30/30/30 29/29/29 31/31/31 
f 33/33/33 34/34/34 32/32/32 
f 32/32/32 31/31/31 33/33/33 
f 35/35/35 36/36/36 34/34/34 
f 34/34/34 33/33/33 35/35/35 
f 37/37/37 38/38/38 36/36/36 
f 36/36/36 35/35/35 37/37/37 
f 39/39/39 40/40/40 38/38/38 
f 38/38/38 37/37/37 39/39/39 
f 3/3/3 2/2/2 40/41/40 
f 40/41/40 39/42/39 3/3/3 
f 41/43/41 42/44/42 43/45/43 
f 42/44/42 44/46/44 43/45/43 
f 44/46/44 45/47/45 43/45/43 
f 45/47/45 46/48/46 43/45/43 
f 46/48/46 47/49/47 43/45/43 
f 47/49/47 48/50/48 43/45/43 
f 48/50/48 49/51/49 43/45/43 
f 49/51/49 50/52/50 43/45/43 
f 50/52/50 51/53/51 43/45/43 
f 51/53/51 52/54/52 43/45/43 
f 52/54/52 53/55/53 43/45/43 
f 53/55/53 54/56/54 43/45/43 
f 54/56/54 55/57/55 43/45/43 
f 55/57/55 56/58/56 43/45/43 
f 56/58/56 57/59/57 43/45/43 
f 57/59/57 58/60/58 43/45/43 
f 58/60/58 59/61/59 43/45/43 
f 59/61/59 60/62/60 43/45/43 
f 60/62/60 61/63/61 43/64/43 
f 61/65/61 41/43/41 43/45/43 
s 2
f 4/66/62 3/67/62 62/68/62 
f 5/69/62 4/66/62 62/68/62 
f 7/70/62 5/69/62 62/68/62 
f 9/9/62 7/70/62 62/68/62 
f 11/11/62 9/9/62 62/68/62 
f 13/13/62 11/11/62 62/68/62 
f 15/15/62 13/13/62 62/68/62 
f 17/17/62 15/15/62 62/68/62 
f 19/19/62 17/17/62 62/68/62 
f 21/21/62 19/19/62 62/68/62 
f 23/23/62 21/21/62 62/68/62 
f 25/25/62 23/23/62 62/68/62 
f 27/27/62 25/25/62 62/68/62 
f 29/29/62 27/27/62 62/68/62 
f 31/31/62 29/29/62 62/68/62 
f 33/33/62 31/31/62 62/68/62 
f 35/35/62 33/33/62 62/68/62 
f 37/37/62 35/35/62 62/68/62 
f 39/39/62 37/37/62 62/68/62 
f 3/67/62 39/39/62 62/68/62 
s 1
f 2/2/2 1/1/1 63/71/63 
f 63/71/63 64/72/64 2/2/2 
f 64/72/64 63/71/63 65/73/65 
f 65/73/65 66/74/66 64/72/64 
f 1/1/1 6/6/6 67/75/67 
f 67/75/67 63/71/63 1/1/1 
f 63/71/63 67/75/67 68/76/68 
f 68/76/68 65/73/65 63/71/63 
f 6/6/6 8/8/8 69/77/69 
f 69/77/69 67/75/67 6/6/6 
f 67/75/67 69/77/69 70/78/70 
f 70/78/70 68/76/68 67/75/67 
f 8/8/8 10/10/10 71/79/71 
f 71/79/71 69/77/69 8/8/8 
f 69/77/69 71/79/71 72/80/72 
f 72/80/72 70/78/70 69/77/69 
f 10/10/10 12/12/12 73/81/73 
f 73/81/73 71/79/71 10/10/10 
f 71/79/71 73/81/73 74/82/74 
f 74/82/74 72/80/72 71/79/71 
f 12/12/12 14/14/14 75/83/75 
f 75/83/75 73/81/73 12/12/12 
f 73/81/73 75/83/75 76/84/76 
f 76/84/76 74/82/74 73/81/73 
f 14/14/14 16/16/16 77/85/77 
f 77/85/77 75/83/75 14/14/14 
f 75/83/75 77/85/77 78/86/78 
f 78/86/78 76/84/76 75/83/75 
f 16/16/16 18/18/18 79/87/79 
f 79/87/79 77/85/77 16/16/16 
f 77/85/77 79/87/79 80/88/80 
f 80/88/80 78/86/78 77/85/77 
f 18/18/18 20/20/20 81/89/81 
f 81/89/81 79/87/79 18/18/18 
f 79/87/79 81/89/81 82/90/82 
f 82/90/82 80/88/80 79/87/79 
f 20/20/20 22/22/22 83/91/83 
f 83/91/83 81/89/81 20/20/20 
f 81/89/81 83/91/83 84/92/84 
f 84/92/84 82/90/82 81/89/81 
f 22/22/22 24/24/24 85/93/85 
f 85/93/85 83/91/83 22/22/22 
f 83/91/83 85/93/85 86/94/86 
f 86/94/86 84/92/84 83/91/83 
f 24/24/24 26/26/26 87/95/87 
f 87/95/87 85/93/85 24/24/24 
f 85/93/85 87/95/87 88/96/88 
f 88/96/88 86/94/86 85/93/85 
f 26/26/26 28/28/28 89/97/89 
f 89/97/89 87/95/87 26/26/26 
f 87/95/87 89/97/89 90/98/90 
f 90/98/90 88/96/88 87/95/87 
f 28/28/28 30/30/30 91/99/91 
f 91/99/91 89/97/89 28/28/28 
f 89/97/89 91/99/91 92/100/92 
f 92/100/92 90/98/90 89/97/89 
f 30/30/30 32/32/32 93/101/93 
f 93/101/93 91/99/91 30/30/30 
f 91/99/91 93/101/93 94/102/94 
f 94/102/94 92/100/92 91/99/91 
f 32/32/32 34/34/34 95/103/95 
f 95/103/95 93/101/93 32/32/32 
f 93/101/93 95/103/95 96/104/96 
f 96/104/96 94/102/94 93/101/93 
f 34/34/34 36/36/36 97/105/97 
f 97/105/97 95/103/95 34/34/34 
f 95/103/95 97/105/97 98/106/98 
f 98/106/98 96/104/96 95/103/95 
f 36/36/36 38/38/38 99/107/99 
f 99/107/99 97/105/97 36/36/36 
f 97/105/97 99/107/99 100/108/100 
f 100/108/100 98/106/98 97/105/97 
f 38/38/38 40/40/40 101/109/101 
f 101/109/101 99/107/99 38/38/38 
f 99/107/99 101/109/101 102/110/102 
f 102/110/102 100/108/100 99/107/99 
f 40/41/40 2/2/2 64/72/64 
f 64/72/64 101/111/101 40/41/40 
f 101/111/101 64/72/64 66/74/66 
f 66/74/66 102/112/102 101/111/101 
f 42/44/42 41/43/41 103/113/103 
f 103/113/103 104/114/104 42/44/42 
f 104/114/104 103/113/103 66/74/66 
f 66/74/66 65/73/65 104/114/104 
f 44/46/44 42/44/42 104/114/104 
f 104/114/104 105/115/105 44/46/44 
f 105/115/105 104/114/104 65/73/65 
f 65/73/65 68/76/68 105/115/105 
f 45/47/45 44/46/44 105/115/105 
f 105/115/105 106/116/106 45/47/45 
f 106/116/106 105/115/105 68/76/68 
f 68/76/68 70/78/70 106/116/106 
f 46/48/46 45/47/45 106/116/106 
f 106/116/106 107/117/107 46/48/46 
f 107/117/107 106/116/106 70/78/70 
f 70/78/70 72/80/72 107/117/107 
f 47/49/47 46/48/46 107/117/107 
f 107/117/107 108/118/108 47/49/47 
f 108/118/108 107/117/107 72/80/72 
f 72/80/72 74/82/74 108/118/108 
f 48/50/48 47/49/47 108/118/108 
f 108/118/108 109/119/109 48/50/48 
f 109/119/109 108/118/108 74/82/74 
f 74/82/74 76/84/76 109/119/109 
f 49/51/49 48/50/48 109/119/109 
f 109/119/109 110/120/110 49/51/49 
f 110/120/110 109/119/109 76/84/76 
f 76/84/76 78/86/78 110/120/110 
f 50/52/50 49/51/49 110/120/110 
f 110/120/110 111/121/111 50/52/50 
f 111/121/111 110/120/110 78/86/78 
f 78/86/78 80/88/80 111/121/111 
f 51/53/51 50/52/50 111/121/111 
f 111/121/111 112/122/112 51/53/51 
f 112/122/112 111/121/111 80/88/80 
f 80/88/80 82/90/82 112/122/112 
f 52/54/52 51/53/51 112/122/112 
f 112/122/112 113/123/113 52/54/52 
f 113/123/113 112/122/112 82/90/82 
f 82/90/82 84/92/84 113/123/113 
f 53/55/53 52/54/52 113/123/113 
f 113/123/113 114/124/114 53/55/53 
f 114/124/114 113/123/113 84/92/84 
f 84/92/84 86/94/86 114/124/114 
f 54/56/54 53/55/53 114/124/114 
f 114/124/114 115/125/115 54/56/54 
f 115/125/115 114/124/114 86/94/86 
f 86/94/86 88/96/88 115/125/115 
f 55/57/55 54/56/54 115/125/115 
f 115/125/115 116/126/116 55/57/55 
f 116/126/116 115/125/115 88/96/88 
f 88/96/88 90/98/90 116/126/116 
f 56/58/56 55/57/55 116/126/116 
f 116/126/116 117/127/117 56/58/56 
f 117/127/117 116/126/116 90/98/90 
f 90/98/90 92/100/92 117/127/117 
f 57/59/57 56/58/56 117/127/117 
f 117/127/117 118/128/118 57/59/57 
f 118/128/118 117/127/117 92/100/92 
f 92/100/92 94/102/94 118/128/118 
f 58/60/58 57/59/57 118/128/118 
f 118/128/118 119/129/119 58/60/58 
f 119/129/119 118/128/118 94/102/94 
f 94/102/94 96/104/96 119/129/119 
f 59/61/59 58/60/58 119/129/119 
f 119/129/119 120/130/120 59/61/59 
f 120/130/120 119/129/119 96/104/96 
f 96/104/96 98/106/98 120/130/120 
f 60/62/60 59/61/59 120/130/120 
f 120/130/120 121/131/121 60/62/60 
f 121/131/121 120/130/120 98/106/98 
f 98/106/98 100/108/100 121/131/121 
f 61/63/61 60/62/60 121/131/121 
f 121/131/121 122/132/122 61/63/61 
f 122/132/122 121/131/121 100/108/100 
f 100/108/100 102/110/102 122/132/122 
f 41/43/41 61/65/61 122/133/122 
f 122/133/122 103/113/103 41/43/41 
f 103/113/103 122/133/122 102/112/102 
f 102/112/102 66/74/66 103/113/103 
# 240 faces

